<svg xmlns="http://www.w3.org/2000/svg" xmlns:xlink="http://www.w3.org/1999/xlink" viewBox="0 0 40.11 40.11"><defs><style>.cls-1{isolation:isolate;}.cls-2{mix-blend-mode:multiply;}.cls-3{fill:url(#linear-gradient);}.cls-4{fill:url(#linear-gradient-2);}.cls-5{opacity:0.43;}.cls-6{fill:#9f4981;}</style><linearGradient id="linear-gradient" x1="5.87" y1="5.87" x2="34.24" y2="34.24" gradientUnits="userSpaceOnUse"><stop offset="0" stop-color="#d9d9d9"/><stop offset="1" stop-color="#fafafa"/></linearGradient><linearGradient id="linear-gradient-2" x1="8.05" y1="8.05" x2="32.06" y2="32.06" gradientUnits="userSpaceOnUse"><stop offset="0" stop-color="#f1f1f2"/><stop offset="1" stop-color="#c7c7c7"/></linearGradient></defs><title>Recurso 12</title><g class="cls-1"><g id="Capa_2" data-name="Capa 2"><g id="Capa_1-2" data-name="Capa 1"><g class="cls-2"><path class="cls-3" d="M40.11,20.06A20.06,20.06,0,1,1,20.06,0,20.05,20.05,0,0,1,40.11,20.06Z"/><path class="cls-4" d="M37,20.06a17,17,0,1,1-17-17A17,17,0,0,1,37,20.06Z"/><g class="cls-5"><path class="cls-3" d="M40.11,20.06A20.06,20.06,0,1,1,20.06,0,20.05,20.05,0,0,1,40.11,20.06Z"/><path class="cls-4" d="M37,20.06a17,17,0,1,1-17-17A17,17,0,0,1,37,20.06Z"/></g><path class="cls-6" d="M17.47,19.45a2.38,2.38,0,0,0,2.1-2.62c0-2.47-1.72-3.68-3.9-3.68H8.48V27h7.19s4.38.14,4.38-4.08C20.05,22.88,20.24,19.45,17.47,19.45Zm-5.82-3.84h4s1,0,1,1.43-.57,1.65-1.22,1.65H11.65Zm3.83,8.89H11.65V20.81h4s1.45,0,1.45,1.9C17.12,24.31,16.06,24.49,15.48,24.5Z"/><rect class="cls-6" x="22.93" y="13.97" width="5.7" height="1.7"/><path class="cls-6" d="M25.9,16.66c-5.31,0-5.3,5.31-5.3,5.31a4.89,4.89,0,0,0,5.3,5.28s4.72.27,4.72-3.68H28.2s.08,1.49-2.22,1.49a2.25,2.25,0,0,1-2.43-2.4h7.16S31.49,16.66,25.9,16.66Zm2.16,4.15H23.53A2.45,2.45,0,0,1,26,18.69,2,2,0,0,1,28.06,20.81Z"/></g></g></g></g></svg>