<svg xmlns="http://www.w3.org/2000/svg" xmlns:xlink="http://www.w3.org/1999/xlink" viewBox="0 0 40.11 40.11"><defs><style>.cls-1{isolation:isolate;}.cls-2{mix-blend-mode:multiply;}.cls-3{fill:url(#linear-gradient);}.cls-4{fill:url(#linear-gradient-2);}.cls-5{fill:#9f4981;}</style><linearGradient id="linear-gradient" x1="5.87" y1="5.87" x2="34.24" y2="34.24" gradientUnits="userSpaceOnUse"><stop offset="0" stop-color="#d9d9d9"/><stop offset="1" stop-color="#fafafa"/></linearGradient><linearGradient id="linear-gradient-2" x1="8.05" y1="8.05" x2="32.06" y2="32.06" gradientUnits="userSpaceOnUse"><stop offset="0" stop-color="#f1f1f2"/><stop offset="1" stop-color="#c7c7c7"/></linearGradient></defs><title>Recurso 13</title><g class="cls-1"><g id="Capa_2" data-name="Capa 2"><g id="Capa_1-2" data-name="Capa 1"><g class="cls-2"><path class="cls-3" d="M40.11,20.06A20.06,20.06,0,1,1,20.06,0,20.05,20.05,0,0,1,40.11,20.06Z"/><path class="cls-4" d="M37,20.06a17,17,0,1,1-17-17A17,17,0,0,1,37,20.06Z"/><path class="cls-3" d="M40.11,20.06A20.06,20.06,0,1,1,20.06,0,20.05,20.05,0,0,1,40.11,20.06Z"/><path class="cls-4" d="M37,20.06a17,17,0,1,1-17-17A17,17,0,0,1,37,20.06Z"/><g class="cls-2"><path class="cls-5" d="M24.61,11.36h-9.1A1.49,1.49,0,0,0,14.17,13V27.15a1.49,1.49,0,0,0,1.34,1.6h9.1a1.48,1.48,0,0,0,1.33-1.6V13A1.48,1.48,0,0,0,24.61,11.36ZM20.75,28a.22.22,0,0,1-.2.24h-1a.23.23,0,0,1-.21-.24V26.82a.23.23,0,0,1,.21-.24h1a.22.22,0,0,1,.2.24Zm4.36-3.22A1.27,1.27,0,0,1,24,26.13H16.15A1.27,1.27,0,0,1,15,24.77V14a1.27,1.27,0,0,1,1.15-1.37H24A1.27,1.27,0,0,1,25.11,14Z"/></g></g></g></g></g></svg>