<svg xmlns="http://www.w3.org/2000/svg" viewBox="0 0 389.37 366.22"><defs><style>.cls-1{fill:#9e4980;}.cls-2{fill:#51b3e6;}.cls-3{fill:#0071bb;}.cls-4{fill:#91a52b;}.cls-5{fill:#8bc53f;}.cls-6{fill:#e63087;}.cls-7{fill:#ff5b87;}</style></defs><title>Recurso 9</title><g id="Capa_2" data-name="Capa 2"><g id="Capa_1-2" data-name="Capa 1"><polygon class="cls-1" points="234.46 103.91 312.94 2.75 0 0 30.94 366.22 205.13 91.88 234.46 103.91"/><polygon class="cls-2" points="234.46 103.91 30.94 366.22 33.03 365.06 194.48 223.46 235.94 252.54 389.37 167.46 234.46 103.91"/><polygon class="cls-1" points="205.13 91.88 30.94 366.22 234.46 103.91 205.13 91.88"/><polygon class="cls-3" points="205.13 91.88 30.94 366.22 234.46 103.91 205.13 91.88"/><polygon class="cls-4" points="32.52 365.51 198.97 289.15 212.85 306.65 280.95 284.12 235.94 252.54 33.03 365.06 32.52 365.51"/><polygon class="cls-2" points="33.03 365.06 235.94 252.54 194.48 223.46 33.03 365.06"/><polygon class="cls-5" points="33.03 365.06 235.94 252.54 194.48 223.46 33.03 365.06"/><polygon class="cls-6" points="234.21 333.58 212.85 306.65 34.23 365.75 234.21 333.58"/><polygon class="cls-4" points="32.52 365.51 31.8 366.14 34.23 365.75 212.85 306.65 198.97 289.15 32.52 365.51"/><polygon class="cls-7" points="32.52 365.51 31.8 366.14 34.23 365.75 212.85 306.65 198.97 289.15 32.52 365.51"/></g></g></svg>