<svg xmlns="http://www.w3.org/2000/svg" viewBox="0 0 97.71 121.06"><defs><style>.cls-1{fill:#fff;}</style></defs><title>Recurso 2</title><g id="Capa_2" data-name="Capa 2"><g id="Capa_1-2" data-name="Capa 1"><path class="cls-1" d="M93.7,12.81H84.9V4A4,4,0,0,0,80.24.05L3.35,12.87a4,4,0,0,0-3.35,4V117.06a4,4,0,0,0,4,4H93.7a4,4,0,0,0,4-4V16.82a4,4,0,0,0-4-4ZM8,20.21,76.89,8.73v92.13L8,112.33ZM89.7,113.05H52.44l29.12-4.85a4,4,0,0,0,3.34-4V20.82h4.8Z"/><path class="cls-1" d="M62.53,26.7,21.15,33.11a4,4,0,0,0,.61,8,4.4,4.4,0,0,0,.62,0l41.37-6.41a4,4,0,0,0-1.22-7.92Z"/></g></g></svg>