<svg xmlns="http://www.w3.org/2000/svg" viewBox="0 0 165.63 93.33"><defs><style>.cls-1{fill:#fff;}</style></defs><title>Recurso 8</title><g id="Capa_2" data-name="Capa 2"><g id="Capa_1-2" data-name="Capa 1"><path class="cls-1" d="M54.77,0h-49A5.75,5.75,0,0,0,0,5.73V87.6a5.75,5.75,0,0,0,5.73,5.73H70.24A5.74,5.74,0,0,0,76,87.6V21.19Zm-49,1.91H54l.77.77L54,2v20H74l.06.06V34.69H1.91v-29A3.82,3.82,0,0,1,5.73,1.91ZM70.24,91.42H5.73A3.82,3.82,0,0,1,1.91,87.6v-51H74.05v51A3.82,3.82,0,0,1,70.24,91.42Z"/><polygon class="cls-1" points="12.1 18.77 16.31 18.77 16.31 22.78 17.88 22.78 17.88 13.37 16.31 13.37 16.31 17.51 12.1 17.51 12.1 13.37 10.53 13.37 10.53 22.78 12.1 22.78 12.1 18.77"/><polygon class="cls-1" points="21.83 22.78 23.4 22.78 23.4 14.63 26.24 14.63 26.24 13.37 18.98 13.37 18.98 14.63 21.83 14.63 21.83 22.78"/><polygon class="cls-1" points="28.91 19.58 28.76 15.52 28.8 15.51 31.58 22.78 32.63 22.78 35.42 15.49 35.46 15.5 35.31 19.58 35.31 22.78 36.88 22.78 36.88 13.37 34.84 13.37 32.13 20.61 32.09 20.61 29.38 13.37 27.34 13.37 27.34 22.78 28.91 22.78 28.91 19.58"/><polygon class="cls-1" points="44.71 21.52 40.38 21.52 40.38 13.37 38.81 13.37 38.81 22.78 44.71 22.78 44.71 21.52"/><polygon class="cls-1" points="32.19 76.92 34.96 76.92 44.09 52.92 41.29 52.92 32.19 76.92"/><polygon class="cls-1" points="18.99 66.28 30.16 72.56 30.16 69.74 22.16 65.23 30.16 60.77 30.16 57.95 18.99 64.22 18.99 66.28"/><polygon class="cls-1" points="45.8 60.77 53.8 65.23 45.8 69.74 45.8 72.56 56.98 66.28 56.98 64.22 45.8 57.95 45.8 60.77"/><path class="cls-1" d="M144.43,0h-49a5.74,5.74,0,0,0-5.72,5.73V87.6a5.74,5.74,0,0,0,5.72,5.73H159.9a5.75,5.75,0,0,0,5.73-5.73V21.19ZM91.57,5.73a3.83,3.83,0,0,1,3.82-3.82h48.25l.08.08V21.92h19.94l.06.06V34.69H91.57ZM159.9,91.42H95.39a3.83,3.83,0,0,1-3.82-3.82v-51h72.15v51A3.82,3.82,0,0,1,159.9,91.42Z"/><path class="cls-1" d="M102,15.26a1.82,1.82,0,0,1,1.53-.77A2,2,0,0,1,105,15a2.06,2.06,0,0,1,.51,1.48h1.52l0,0a3,3,0,0,0-.94-2.36,3.72,3.72,0,0,0-2.63-.88,3.4,3.4,0,0,0-2.64,1.12,4,4,0,0,0-1,2.83V19a4,4,0,0,0,1,2.83,3.49,3.49,0,0,0,2.68,1.11,3.59,3.59,0,0,0,2.58-.9,2.93,2.93,0,0,0,.93-2.32v0h-1.52a2,2,0,0,1-.5,1.48,2,2,0,0,1-1.48.52A1.86,1.86,0,0,1,102,20.9a3.08,3.08,0,0,1-.58-1.93v-1.8A3.13,3.13,0,0,1,102,15.26Z"/><path class="cls-1" d="M112.05,17.4a5.62,5.62,0,0,1-1.65-.67,1.07,1.07,0,0,1-.51-.89,1.19,1.19,0,0,1,.47-1,2,2,0,0,1,1.32-.38,2,2,0,0,1,1.4.45,1.51,1.51,0,0,1,.49,1.18h1.51v0a2.5,2.5,0,0,0-.91-2,3.57,3.57,0,0,0-2.49-.84,3.84,3.84,0,0,0-2.43.74,2.31,2.31,0,0,0-.94,1.88,2.19,2.19,0,0,0,.85,1.78,6.55,6.55,0,0,0,2.43,1.1,4.09,4.09,0,0,1,1.54.67,1.21,1.21,0,0,1,.44,1,1.12,1.12,0,0,1-.48.95,2.34,2.34,0,0,1-1.36.35,2.63,2.63,0,0,1-1.55-.42A1.47,1.47,0,0,1,109.6,20h-1.52v0a2.4,2.4,0,0,0,1.08,2.14,4.32,4.32,0,0,0,2.59.79,4,4,0,0,0,2.47-.7,2.19,2.19,0,0,0,.94-1.87,2.36,2.36,0,0,0-.79-1.83A5.42,5.42,0,0,0,112.05,17.4Z"/><path class="cls-1" d="M120.25,17.4a5.83,5.83,0,0,1-1.66-.67,1.08,1.08,0,0,1-.5-.89,1.21,1.21,0,0,1,.46-1,2.07,2.07,0,0,1,1.33-.38,2,2,0,0,1,1.4.45,1.51,1.51,0,0,1,.49,1.18h1.51v0a2.5,2.5,0,0,0-.91-2,3.61,3.61,0,0,0-2.49-.84,3.84,3.84,0,0,0-2.43.74,2.28,2.28,0,0,0-.94,1.88,2.16,2.16,0,0,0,.85,1.78,6.55,6.55,0,0,0,2.43,1.1,4.09,4.09,0,0,1,1.54.67,1.21,1.21,0,0,1,.44,1,1.11,1.11,0,0,1-.49.95,2.3,2.3,0,0,1-1.36.35,2.6,2.6,0,0,1-1.54-.42,1.48,1.48,0,0,1-.6-1.29h-1.51v0a2.4,2.4,0,0,0,1.08,2.14,4.31,4.31,0,0,0,2.58.79,4,4,0,0,0,2.48-.7,2.21,2.21,0,0,0,.94-1.87,2.36,2.36,0,0,0-.79-1.83A5.54,5.54,0,0,0,120.25,17.4Z"/><path class="cls-1" d="M117.42,55.5v3.42a3.75,3.75,0,0,1-3.51,3.79v2.07a3.75,3.75,0,0,1,3.51,3.79V72c0,3.44,1.87,5.06,6,5.22v-2c-2.3-.28-3.7-1.62-3.7-3.61V68.56c0-2.12-.77-3.53-2.29-4.2l-1.41-.62,1.41-.61c1.52-.67,2.29-2.08,2.29-4.2V55.86c0-2,1.4-3.33,3.7-3.61v-2C119.29,50.44,117.42,52.06,117.42,55.5Z"/><path class="cls-1" d="M137.47,58.92V55.5c0-3.44-1.88-5.06-6.05-5.22v2c2.3.28,3.7,1.62,3.7,3.61v3.07c0,2.12.77,3.53,2.29,4.2l1.41.61-1.41.62c-1.52.67-2.29,2.08-2.29,4.2v3.07c0,2-1.4,3.33-3.7,3.61v2c4.17-.16,6.05-1.78,6.05-5.22V68.57a3.75,3.75,0,0,1,3.5-3.79V62.71A3.75,3.75,0,0,1,137.47,58.92Z"/></g></g></svg>