<svg xmlns="http://www.w3.org/2000/svg" viewBox="0 0 122.82 131.74"><defs><style>.cls-1{fill:#fff;}</style></defs><title>Recurso 7</title><g id="Capa_2" data-name="Capa 2"><g id="Capa_1-2" data-name="Capa 1"><path class="cls-1" d="M121.8,25.37,97.45,1a3.5,3.5,0,0,0-4.94,0L32,61.57A3.51,3.51,0,0,0,31,63.36L25,93.74a3.48,3.48,0,0,0,3.42,4.17,3.14,3.14,0,0,0,.68-.07l30.38-6a3.53,3.53,0,0,0,1.79-1L121.8,30.31a3.5,3.5,0,0,0,0-4.94ZM34.25,82.89,37.4,67,55.81,85.42,39.93,88.57Z"/><path class="cls-1" d="M91.36,105.66c-33.38-14-55.11,9.14-61.6,12.65-8.29,4.49-20,9.76-22.7.63-1.63-5.5,7.23-11.39,13.09-13.22,4.28-1.34,2.46-8.08-1.85-6.73-9.11,2.84-20,10.52-18.08,21.33,1.41,8,11.48,15.35,30.88,5.17,14.11-7.4,23.69-22.73,53.39-14.79,9.76,2.61,17.65,9,21,18.64,1.47,4.22,8.22,2.41,6.73-1.86-3.6-10.31-10.88-17.63-20.89-21.82Z"/></g></g></svg>