<svg xmlns="http://www.w3.org/2000/svg" xmlns:xlink="http://www.w3.org/1999/xlink" viewBox="0 0 40.11 40.11"><defs><style>.cls-1{isolation:isolate;}.cls-2{mix-blend-mode:multiply;}.cls-3{fill:url(#linear-gradient);}.cls-4{fill:url(#linear-gradient-2);}.cls-5{fill:#92a62b;}</style><linearGradient id="linear-gradient" x1="5.87" y1="5.87" x2="34.24" y2="34.24" gradientUnits="userSpaceOnUse"><stop offset="0" stop-color="#d9d9d9"/><stop offset="1" stop-color="#fafafa"/></linearGradient><linearGradient id="linear-gradient-2" x1="8.05" y1="8.05" x2="32.06" y2="32.06" gradientUnits="userSpaceOnUse"><stop offset="0" stop-color="#f1f1f2"/><stop offset="1" stop-color="#c7c7c7"/></linearGradient></defs><title>Recurso 15</title><g class="cls-1"><g id="Capa_2" data-name="Capa 2"><g id="Capa_1-2" data-name="Capa 1"><g class="cls-2"><path class="cls-3" d="M40.11,20.06A20.06,20.06,0,1,1,20.06,0,20.05,20.05,0,0,1,40.11,20.06Z"/><path class="cls-4" d="M37,20.06a17,17,0,1,1-17-17A17,17,0,0,1,37,20.06Z"/><path class="cls-3" d="M40.11,20.06A20.06,20.06,0,1,1,20.06,0,20.05,20.05,0,0,1,40.11,20.06Z"/><path class="cls-4" d="M37,20.06a17,17,0,1,1-17-17A17,17,0,0,1,37,20.06Z"/><path class="cls-5" d="M14.49,12.62a1.77,1.77,0,1,0,1.76,1.76A1.76,1.76,0,0,0,14.49,12.62Z"/><rect class="cls-5" x="12.97" y="17.48" width="3.04" height="9.77"/><path class="cls-5" d="M23.74,17.24a3.17,3.17,0,0,0-2.87,1.58h0V17.48H17.91v9.77h3V22.42c0-1.28.24-2.51,1.82-2.51s1.58,1.46,1.58,2.59v4.75h3V21.89C27.38,19.26,26.81,17.24,23.74,17.24Z"/></g></g></g></g></svg>