<svg xmlns="http://www.w3.org/2000/svg" xmlns:xlink="http://www.w3.org/1999/xlink" viewBox="0 0 40.11 40.11"><defs><style>.cls-1{isolation:isolate;}.cls-2{mix-blend-mode:multiply;}.cls-3{fill:url(#linear-gradient);}.cls-4{fill:url(#linear-gradient-2);}.cls-5,.cls-6{fill:#51b4e7;}.cls-6{stroke:#fff;stroke-linecap:round;stroke-miterlimit:10;}</style><linearGradient id="linear-gradient" x1="5.87" y1="5.87" x2="34.24" y2="34.24" gradientUnits="userSpaceOnUse"><stop offset="0" stop-color="#d9d9d9"/><stop offset="1" stop-color="#fafafa"/></linearGradient><linearGradient id="linear-gradient-2" x1="8.05" y1="8.05" x2="32.06" y2="32.06" gradientUnits="userSpaceOnUse"><stop offset="0" stop-color="#f1f1f2"/><stop offset="1" stop-color="#c7c7c7"/></linearGradient></defs><title>Recurso 14</title><g class="cls-1"><g id="Capa_2" data-name="Capa 2"><g id="Capa_1-2" data-name="Capa 1"><g class="cls-2"><path class="cls-3" d="M40.11,20.06A20.06,20.06,0,1,1,20.06,0,20.05,20.05,0,0,1,40.11,20.06Z"/><path class="cls-4" d="M37,20.06a17,17,0,1,1-17-17A17,17,0,0,1,37,20.06Z"/><path class="cls-3" d="M40.11,20.06A20.06,20.06,0,1,1,20.06,0,20.05,20.05,0,0,1,40.11,20.06Z"/><path class="cls-4" d="M37,20.06a17,17,0,1,1-17-17A17,17,0,0,1,37,20.06Z"/><g class="cls-2"><rect class="cls-5" x="12.88" y="13.82" width="15.42" height="11.35"/><polyline class="cls-6" points="28.2 13.89 20.59 19.5 12.96 13.87"/></g></g></g></g></g></svg>