<svg xmlns="http://www.w3.org/2000/svg" viewBox="0 0 98.18 131.81"><defs><style>.cls-1{fill:#fff;}</style></defs><title>Recurso 4</title><g id="Capa_2" data-name="Capa 2"><g id="Capa_1-2" data-name="Capa 1"><path class="cls-1" d="M19.64,0a7.9,7.9,0,0,0-7.87,7.86V58.75L0,69v55a7.89,7.89,0,0,0,7.86,7.86H90.32A7.89,7.89,0,0,0,98.18,124V69L86.41,58.75V7.86A7.9,7.9,0,0,0,78.55,0ZM86.41,63.87,92.3,69l-5.89,5.1ZM15.7,7.86a3.72,3.72,0,0,1,3.94-3.93H78.55a4.25,4.25,0,0,1,3.93,3.93V77.21L69.9,88.61H28.29L15.7,77.6ZM57,100.38H41.23L32.6,92.54H65.2ZM11.77,63.87v10.6L5.89,69ZM5.1,126.69A3.56,3.56,0,0,1,3.93,124v-51l31.41,27.48Zm4.72,1.19,27.5-23.57H60.86l27.5,23.57ZM94.25,98.42V124a3.56,3.56,0,0,1-1.17,2.74L62.84,100.38,94.25,72.9Z"/><path class="cls-1" d="M40.56,29.38H24.92a1.83,1.83,0,0,0-1.82,1.83V57.32a1.84,1.84,0,0,0,1.82,1.83H45.5a1.84,1.84,0,0,0,1.82-1.83V36.14ZM24.92,30H40.31l.25.24L40.31,30v6.37H46.7l0,0v4h-23V31.21A1.21,1.21,0,0,1,24.92,30ZM45.5,58.54H24.92a1.22,1.22,0,0,1-1.21-1.22V41.05h23V57.32A1.22,1.22,0,0,1,45.5,58.54Z"/><polygon class="cls-1" points="26.95 35.37 28.3 35.37 28.3 36.65 28.8 36.65 28.8 33.64 28.3 33.64 28.3 34.96 26.95 34.96 26.95 33.64 26.45 33.64 26.45 36.65 26.95 36.65 26.95 35.37"/><polygon class="cls-1" points="30.06 36.65 30.56 36.65 30.56 34.05 31.47 34.05 31.47 33.64 29.15 33.64 29.15 34.05 30.06 34.05 30.06 36.65"/><polygon class="cls-1" points="32.32 35.62 32.27 34.33 32.28 34.33 33.17 36.65 33.5 36.65 34.4 34.32 34.41 34.32 34.36 35.62 34.36 36.65 34.86 36.65 34.86 33.64 34.21 33.64 33.34 35.95 33.33 35.95 32.47 33.64 31.82 33.64 31.82 36.65 32.32 36.65 32.32 35.62"/><polygon class="cls-1" points="37.36 36.24 35.98 36.24 35.98 33.64 35.48 33.64 35.48 36.65 37.36 36.65 37.36 36.24"/><polygon class="cls-1" points="33.36 53.91 34.25 53.91 37.16 46.26 36.27 46.26 33.36 53.91"/><polygon class="cls-1" points="29.15 50.52 32.72 52.52 32.72 51.62 30.17 50.19 32.72 48.76 32.72 47.86 29.15 49.86 29.15 50.52"/><polygon class="cls-1" points="37.71 48.76 40.26 50.19 37.71 51.62 37.71 52.52 41.27 50.52 41.27 49.86 37.71 47.86 37.71 48.76"/><path class="cls-1" d="M68.32,29.38H52.68a1.83,1.83,0,0,0-1.82,1.83V57.32a1.84,1.84,0,0,0,1.82,1.83H73.26a1.84,1.84,0,0,0,1.82-1.83V36.14ZM51.47,31.21A1.21,1.21,0,0,1,52.68,30H68.07l0,0v6.36h6.36l0,0v4h-23ZM73.26,58.54H52.68a1.22,1.22,0,0,1-1.21-1.22V41.05h23V57.32A1.22,1.22,0,0,1,73.26,58.54Z"/><path class="cls-1" d="M54.79,34.24a.57.57,0,0,1,.48-.24.66.66,0,0,1,.49.17.64.64,0,0,1,.16.47h.49a.92.92,0,0,0-.3-.75,1.17,1.17,0,0,0-.84-.28,1.09,1.09,0,0,0-.84.36,1.24,1.24,0,0,0-.32.9v.57a1.28,1.28,0,0,0,.32.91,1.27,1.27,0,0,0,1.68.06.93.93,0,0,0,.3-.74h-.49a.64.64,0,0,1-.16.47.63.63,0,0,1-.47.17.58.58,0,0,1-.5-.25,1,1,0,0,1-.18-.61v-.58A1,1,0,0,1,54.79,34.24Z"/><path class="cls-1" d="M58,34.93a1.71,1.71,0,0,1-.53-.22.32.32,0,0,1-.16-.28.37.37,0,0,1,.15-.31.66.66,0,0,1,.42-.12.64.64,0,0,1,.45.15.48.48,0,0,1,.15.37H59a.81.81,0,0,0-.29-.64,1.16,1.16,0,0,0-.8-.27,1.26,1.26,0,0,0-.77.23.74.74,0,0,0-.3.6.68.68,0,0,0,.27.57,2,2,0,0,0,.77.35,1.49,1.49,0,0,1,.5.22.38.38,0,0,1,.13.3.37.37,0,0,1-.15.31.76.76,0,0,1-.43.11.85.85,0,0,1-.5-.14.48.48,0,0,1-.19-.41h-.48a.79.79,0,0,0,.34.69,1.38,1.38,0,0,0,.83.25,1.3,1.3,0,0,0,.79-.22.71.71,0,0,0,.3-.6.74.74,0,0,0-.26-.58A1.56,1.56,0,0,0,58,34.93Z"/><path class="cls-1" d="M60.61,34.93a1.83,1.83,0,0,1-.53-.22.34.34,0,0,1-.16-.28.37.37,0,0,1,.15-.31.66.66,0,0,1,.42-.12.61.61,0,0,1,.45.15.49.49,0,0,1,.16.37h.48a.78.78,0,0,0-.29-.64,1.13,1.13,0,0,0-.79-.27,1.27,1.27,0,0,0-.78.23.74.74,0,0,0-.3.6.68.68,0,0,0,.27.57,2,2,0,0,0,.78.35,1.42,1.42,0,0,1,.49.22.39.39,0,0,1,.14.3.36.36,0,0,1-.16.31.74.74,0,0,1-.43.11.81.81,0,0,1-.49-.14.45.45,0,0,1-.19-.41h-.49a.79.79,0,0,0,.35.69,1.35,1.35,0,0,0,.82.25,1.28,1.28,0,0,0,.79-.22.71.71,0,0,0,.3-.6.73.73,0,0,0-.25-.58A1.6,1.6,0,0,0,60.61,34.93Z"/><path class="cls-1" d="M59.71,47.08v1.09a1.2,1.2,0,0,1-1.12,1.21V50a1.2,1.2,0,0,1,1.12,1.21v1.09c0,1.1.6,1.61,1.93,1.66v-.62a1.18,1.18,0,0,1-1.18-1.16v-1a1.31,1.31,0,0,0-.73-1.33l-.45-.2.45-.2a1.31,1.31,0,0,0,.73-1.33v-1A1.18,1.18,0,0,1,61.64,46v-.62C60.31,45.47,59.71,46,59.71,47.08Z"/><path class="cls-1" d="M66.1,48.17V47.08c0-1.1-.59-1.61-1.93-1.66V46a1.17,1.17,0,0,1,1.18,1.16v1a1.31,1.31,0,0,0,.73,1.33l.46.2-.46.2a1.31,1.31,0,0,0-.73,1.33v1a1.17,1.17,0,0,1-1.18,1.16V54c1.34,0,1.93-.56,1.93-1.66V51.25A1.2,1.2,0,0,1,67.22,50v-.66A1.2,1.2,0,0,1,66.1,48.17Z"/></g></g></svg>