<svg xmlns="http://www.w3.org/2000/svg" xmlns:xlink="http://www.w3.org/1999/xlink" viewBox="0 0 335.66 409.03"><defs><style>.cls-1{fill:none;}.cls-2{clip-path:url(#clip-path);}.cls-3{fill:#858585;}.cls-4{fill:#1d1d1b;}.cls-5{opacity:0.5;}.cls-6{fill:#fff;}.cls-7{fill:#ff5b87;}.cls-8{fill:#6f6f6e;}.cls-9{fill:#9e4980;}.cls-10{fill:#51b3e6;}.cls-11{fill:#0071bb;}.cls-12{fill:#91a52b;}.cls-13{fill:#8fb72b;}.cls-14{fill:#e63087;}</style><clipPath id="clip-path"><circle class="cls-1" cx="174.07" cy="163.61" r="161.39"/></clipPath></defs><title>Recurso 1</title><g id="Capa_2" data-name="Capa 2"><g id="Capa_1-2" data-name="Capa 1"><g class="cls-2"><path class="cls-3" d="M109.16,199.35s22.17,27.72,44.46,22C153.62,221.34,117.72,231.88,109.16,199.35Z"/><path d="M240.71,189.28c-4.56-6.56-3.42-.29-3.42-.29,3.71,5.7-2.27,5.13-2.27,5.13-4.55-3.7-1.43-10.83-1.43-10.83,5.7-16-7.41-37.9-7.41-37.9,3.42-1.42,5.13-12.82,5.13-12.82,3.7-8.27-9.41-20.23-9.41-20.23-4.27-6.56-13.39-17.67-13.39-17.67C202.81,76.43,188,63.89,188,63.89,154.08,27.42,124.45,42,124.45,42,99.65,48.79,91.39,71,91.39,71,78,80.13,78.85,100.94,78.85,100.94c-4.84,8-12.54,27.92-12.54,27.92C54.06,150.24,72.87,169,72.87,169c9.69,9.41-2.57,34.2-2.57,34.2-.88,12.73,3.75,19.8,8.2,21.13-15.66-11.08.35-31.11.35-31.11-9.4,16,3.83,31.6,3.83,31.6a4.17,4.17,0,0,0,1-.72l-2.88-5.75s3.12,3.69,6.41,4.27h0l6-4.3c-5.27-.57-3.18-6-3.18-6l7.45,3,3-2.13c5.46-5.18,8.92-14,8.92-14a73.36,73.36,0,0,1-9-18.34,129,129,0,0,1-4.7-26.07c1.14-8.84-.29-22.09-.29-22.09,3.13-5.7,6.27-27.07,6.27-27.07-4.27-22.51,11.68-27.36,11.68-27.36a22.91,22.91,0,0,1,14-3.7c10,3.71,19.73.29,19.73.29,16.32-10.26,28.71,33.62,28.71,33.62.85,27.36,14.82,51.58,14.82,51.58L188,172.75c-2.85,19.95-18,34.48-18,34.48l-5.6,12.68c1.61,3.92,6.76,15.88,9.82,17.62-6.41-8.56,3.05-36,3.05-36,3.56-3.85,3,0,3,0-8.25,9.38-6.53,32.45-6.51,32.51a54.14,54.14,0,0,0,10.75,4.62C190.93,278.16,227.6,252,227.6,252c-15.6-20.3-1.07-39.28-1.07-39.28,7.13-6.84,2.78-13.16,2.78-13.16C243.84,199.25,240.71,189.28,240.71,189.28ZM74.15,156.65a19.82,19.82,0,0,0,4.7,2.42l2.42,6.41A5,5,0,0,1,77,166.76ZM80,201.53c.14,4.56,5.63,19.13,5.63,19.13C74.08,215.39,80,201.53,80,201.53Zm.71-18.1c.43-2.7-3.7-14.67-3.7-14.67l4.84-2c.86,3.56,4.85,8.41,4.85,8.41C86.55,180.44,80.7,183.43,80.7,183.43Zm11.81,24.51,3.16-3.56L98,214S95.14,210.69,92.51,207.94Zm3.16-4.7-4,4.7-1.43-1.14c-2-8,0-9.69,0-9.69ZM199.42,235l-.11,0,.11,0c.71-.3,4.83-2.87,7.3-22.33C206.72,212.65,208.69,231.87,199.42,235ZM209.51,98.34c2.06,2,10.54,13,10.54,13C212.14,109.09,209.51,98.34,209.51,98.34Zm13.39,69.71,2.78-1.86c1.35,2.85,2.78,6.56,2.78,6.56l-3.71,1.56C225,172,222.9,168.05,222.9,168.05Zm8.83,15.3,0-.17-.54.11c-2,.43-4.7-1.42-4.7-1.42.86-1-.78-4-.78-4l3.27-2.14a32.84,32.84,0,0,1,2.75,7.44C232.86,183,231.73,183.35,231.73,183.35Z"/><path d="M120.78,75.26s30.3,62.84,63.88,68.69c0,0-11.85-79.06-34.81-80.15C149.85,63.8,127.22,52.48,120.78,75.26Z"/><path d="M126.18,85.43s-25.5,31.88-37.84,32.09c0,0,.44-40.82,26.85-48.52C115.19,69,144.11,68.5,126.18,85.43Z"/><path class="cls-4" d="M219.81,226.9H213.4L215,216.49S221.6,214.49,219.81,226.9Z"/><g class="cls-5"><path class="cls-6" d="M143.9,71.73s24.69,42.74,51.8,58.06C195.7,129.79,178.48,123.9,143.9,71.73Z"/></g><g class="cls-5"><path class="cls-6" d="M96.55,112.26s-3.16,11.29-5.68,17.53c0,0-3,5.82,0,21.17,0,0-5.49-10.59-2.53-21.17C88.34,129.79,91.08,128.24,96.55,112.26Z"/></g><path d="M56.78,345.76H259.36c4.63-9.68,1.68-24.61,1.68-24.61-3.15-13-14.3-31.35-14.3-31.35-7.15-8.2-7.15-15.78-7.15-15.78,9.88-7.36,9.46-18.93,9.46-18.93-1.47-5.89-9.67-22.3-9.67-22.3-7.16-8.83-19.57-5.89-19.57-5.89l2.95,31.63c-4.07,5.89-19.21,11.36-19.21,11.36-16.55,8.55-29.6,4.63-29.6,4.63-16.68-3.93-24.82-10-24.82-10A99,99,0,0,0,132,253.06c-19.77-8-26.17-15.15-26.17-15.15-6.4-6.45-19.13-13.18-19.13-13.18-3.78-3.09-18.79-2.81-18.79-2.81a6.74,6.74,0,0,0-5.33,3.65c-9.53,3.6-14.86,3-14.86,3-3.37-3.58-6.52.63-6.52.63-8.84-3.37-16.4,3.15-16.4,3.15v61s38.57,13.28,40.42,33.45l-7.57,18.9"/></g><path class="cls-7" d="M326.38,110.23A164,164,0,0,1,330.86,204a164.9,164.9,0,0,1-26.67,57.46A164.59,164.59,0,0,1,29.46,249,165.24,165.24,0,0,1,7.79,187.18a163,163,0,0,1-1.25-32.89A164.76,164.76,0,0,1,271.37,34.2l3.1,2.48L276,37.91c.52.41,1,.83,1.52,1.27l3,2.63L282,43.12l.75.66.71.69,2.85,2.76,1.43,1.38.71.69.67.73,2.73,2.89c.89,1,1.84,1.89,2.68,2.92a164.31,164.31,0,0,1,31.83,54.39Zm0,0A163.21,163.21,0,0,0,313,81.57,158,158,0,0,0,49.26,69.77,158.24,158.24,0,0,0,23.7,124.91,157.44,157.44,0,0,0,28,214.8a156.5,156.5,0,0,0,12.74,27.56A154.58,154.58,0,0,0,58.53,267,158,158,0,0,0,333.81,141,163.34,163.34,0,0,0,326.38,110.23Z"/><path class="cls-8" d="M56.71,349.16H48.48v27.36h-1.8V349.16H38.51V347.5h18.2Z"/><path class="cls-8" d="M75.73,376.52H74v-3.64a9.64,9.64,0,0,1-4.46,3.34,9.87,9.87,0,0,1-3.63.67,9.5,9.5,0,0,1-7.19-2.83,11.4,11.4,0,0,1-.1-14.66,9.36,9.36,0,0,1,7.21-2.84A9.35,9.35,0,0,1,74,360.9v-4h1.7ZM74,370.38v-2.65A10.92,10.92,0,0,0,72.09,361,7.19,7.19,0,0,0,66,358.1a7.66,7.66,0,0,0-6,2.43,8.79,8.79,0,0,0-2.15,6.16,8.88,8.88,0,0,0,2.11,6.19,7.73,7.73,0,0,0,6,2.41,8.13,8.13,0,0,0,3.63-.83A10.31,10.31,0,0,0,74,370.38Z"/><path class="cls-8" d="M84.63,358.52H79.32v14c0,1.6.57,2.39,1.7,2.39H82.2v1.6h-.87c-2.48,0-3.71-1.27-3.71-3.81V351.37h1.7v5.55h5.31Z"/><path class="cls-8" d="M88.2,351.41a1.11,1.11,0,0,1-1.26,1.24c-.8,0-1.19-.42-1.19-1.24a1.05,1.05,0,0,1,1.19-1.2Q88.2,350.21,88.2,351.41Zm-.39,25.11h-1.7v-19.6h1.7Z"/><path class="cls-8" d="M109.79,376.52h-1.71v-3.64a9.59,9.59,0,0,1-4.46,3.34,9.78,9.78,0,0,1-3.62.67,9.5,9.5,0,0,1-7.2-2.83,11.4,11.4,0,0,1-.1-14.66,10.16,10.16,0,0,1,15.38,1.5v-4h1.71Zm-1.71-6.14v-2.65a10.86,10.86,0,0,0-1.94-6.71A7.17,7.17,0,0,0,100,358.1a7.7,7.7,0,0,0-6,2.43,8.78,8.78,0,0,0-2.14,6.16,8.88,8.88,0,0,0,2.1,6.19,7.75,7.75,0,0,0,6,2.41,8.12,8.12,0,0,0,3.62-.83A10.25,10.25,0,0,0,108.08,370.38Z"/><path class="cls-8" d="M127.62,376.52H126V364.91a7,7,0,0,0-1.66-4.83,5.88,5.88,0,0,0-4.64-2,6.1,6.1,0,0,0-4.58,1.74,6.27,6.27,0,0,0-1.71,4.62v12.06h-1.7V356.88h1.7v2.7a8.15,8.15,0,0,1,12.27-.45,9.52,9.52,0,0,1,2,6.31Z"/><path class="cls-8" d="M149.21,376.52h-1.7v-3.64a9.64,9.64,0,0,1-4.46,3.34,9.87,9.87,0,0,1-3.63.67,9.48,9.48,0,0,1-7.19-2.83,10.1,10.1,0,0,1-2.72-7.33,10.21,10.21,0,0,1,2.61-7.33,10.18,10.18,0,0,1,15.39,1.5v-4h1.7Zm-1.7-6.14v-2.65a10.92,10.92,0,0,0-1.94-6.71,7.19,7.19,0,0,0-6.14-2.92,7.66,7.66,0,0,0-6,2.43,8.79,8.79,0,0,0-2.15,6.16,8.88,8.88,0,0,0,2.11,6.19,7.73,7.73,0,0,0,6,2.41,8.13,8.13,0,0,0,3.63-.83A10.31,10.31,0,0,0,147.51,370.38Z"/><path class="cls-8" d="M185.76,347.5l-9.08,14.61v14.41H175V362.15l-9.11-14.65h1.82l8.14,13.06,8.11-13.06Z"/><path class="cls-8" d="M185.22,375.16a1.55,1.55,0,1,1-3.1,0,1.55,1.55,0,0,1,3.1,0Z"/><path class="cls-8" d="M219.74,355.89a8.54,8.54,0,0,1-3,6.61q-2.53,2.26-7.23,2.27h-5.86v11.75h-1.81v-26a3.13,3.13,0,0,1,1.32-2.74,4,4,0,0,1,2.31-.71l5.43,0a8.28,8.28,0,0,1,8.8,8.78Zm-1.9,0a7.35,7.35,0,0,0-1.81-5.19,6.68,6.68,0,0,0-5.1-2h-5.6a1.67,1.67,0,0,0-1.64,1.77v12.59h6.49a7.9,7.9,0,0,0,5.5-1.85A6.77,6.77,0,0,0,217.84,355.93Z"/><path class="cls-8" d="M239,376.52h-1.7v-3.64a9.69,9.69,0,0,1-4.46,3.34,9.87,9.87,0,0,1-3.63.67,9.5,9.5,0,0,1-7.2-2.83,11.43,11.43,0,0,1-.1-14.66,10.18,10.18,0,0,1,15.39,1.5v-4H239Zm-1.7-6.14v-2.65a10.86,10.86,0,0,0-2-6.71,7.17,7.17,0,0,0-6.13-2.92,7.66,7.66,0,0,0-6,2.43,10,10,0,0,0,0,12.35,7.72,7.72,0,0,0,6,2.41,8.12,8.12,0,0,0,3.62-.83A10.28,10.28,0,0,0,237.34,370.38Z"/><path class="cls-8" d="M251.61,358.79l-.12,0c.13,0-.63-.1-2.29-.28a5.79,5.79,0,0,0-4.77,2.47q-1.85,2.37-1.84,6.8v8.76h-1.67v-19.6h1.67v3.83a7.57,7.57,0,0,1,6.85-3.91l2.17.31Z"/><path class="cls-8" d="M273.19,347.58v28.94h-1.7v-3.64a9.49,9.49,0,0,1-4.46,3.34,9.87,9.87,0,0,1-3.63.67,9.5,9.5,0,0,1-7.19-2.83,11.41,11.41,0,0,1-.11-14.66,10.18,10.18,0,0,1,15.39,1.5V347.58Zm-1.7,22.8v-2.65a10.92,10.92,0,0,0-1.94-6.71,7.19,7.19,0,0,0-6.14-2.92,7.66,7.66,0,0,0-6,2.43,8.78,8.78,0,0,0-2.14,6.16,8.91,8.91,0,0,0,2.1,6.19,7.77,7.77,0,0,0,6,2.41,8.13,8.13,0,0,0,3.63-.83A10.25,10.25,0,0,0,271.49,370.38Z"/><path class="cls-8" d="M294.88,366.73a10.17,10.17,0,0,1-2.72,7.3,10.35,10.35,0,0,1-14.3,0,11,11,0,0,1,0-14.58,10.33,10.33,0,0,1,14.33,0A10.14,10.14,0,0,1,294.88,366.73Zm-1.8,0a8.9,8.9,0,0,0-2.14-6.14A7.6,7.6,0,0,0,285,358.1a7.69,7.69,0,0,0-6,2.45,9.84,9.84,0,0,0,0,12.28,8.37,8.37,0,0,0,11.87,0A8.8,8.8,0,0,0,293.08,366.69Z"/><path class="cls-8" d="M202.65,398a7.77,7.77,0,0,1-1.32,4.72,5.05,5.05,0,0,1-4.33,2h-2.57a1.76,1.76,0,0,1-1.06-.36,1.45,1.45,0,0,1-.6-1.22V392.7h0a1.48,1.48,0,0,1,.46-1.15,1.64,1.64,0,0,1,1.19-.43h2.27a5.34,5.34,0,0,1,4.44,2.09A7.48,7.48,0,0,1,202.65,398Zm-.88,0a6.93,6.93,0,0,0-1.24-4.25,4.57,4.57,0,0,0-3.88-1.86h-2.3a.77.77,0,0,0-.75.81v10.5a.77.77,0,0,0,.75.81H197a4.21,4.21,0,0,0,3.74-1.84A7.22,7.22,0,0,0,201.77,398Z"/><path class="cls-8" d="M204.64,393.25a.51.51,0,0,1-.58.57.5.5,0,0,1-.55-.57.49.49,0,0,1,.55-.55C204.45,392.7,204.64,392.89,204.64,393.25Zm-.18,11.53h-.78v-9h.78Z"/><path class="cls-8" d="M212.39,402.47q0,2.31-3.51,2.31H208a3,3,0,0,1-2.47-1l.7-.42A2.33,2.33,0,0,0,208,404h1.48c1.44,0,2.16-.5,2.16-1.51,0-.86-.69-1.49-2.06-1.86l-1.74-.49c-1.49-.41-2.24-1.18-2.24-2.29,0-1.41.94-2.11,2.84-2.11h1.38a3,3,0,0,1,2.46.94l-.7.42a2.49,2.49,0,0,0-1.84-.62h-1.59q-1.77,0-1.77,1.41c0,.71.61,1.23,1.82,1.57L210,400C211.59,400.47,212.39,401.29,212.39,402.47Z"/><path class="cls-8" d="M222.31,400.13a1.62,1.62,0,0,1,0,.41h-8.19a3.86,3.86,0,0,0,1.13,2.66,3.65,3.65,0,0,0,2.69,1,5.73,5.73,0,0,0,1.75-.29,3.6,3.6,0,0,0,1.53-.86l.58.55A5.17,5.17,0,0,1,217.9,405a4.44,4.44,0,0,1-4.65-4.66,4.65,4.65,0,0,1,1.27-3.35,4.35,4.35,0,0,1,3.28-1.33,4.36,4.36,0,0,1,4.51,4.52Zm-.82-.33a3.91,3.91,0,0,0-1.15-2.52,3.51,3.51,0,0,0-2.55-1,3.58,3.58,0,0,0-2.56,1,4,4,0,0,0-1.15,2.52Z"/><path class="cls-8" d="M230.5,404.78h-.76v-5.33a3.28,3.28,0,0,0-.76-2.22,2.74,2.74,0,0,0-2.13-.91,2.82,2.82,0,0,0-2.11.8,2.9,2.9,0,0,0-.78,2.12v5.54h-.78v-9H224V397a3.72,3.72,0,0,1,5.63-.2,4.33,4.33,0,0,1,.91,2.89Zm-.94-12.29a4,4,0,0,1-.59,1.08,1.24,1.24,0,0,1-1.06.42,3.55,3.55,0,0,1-1-.31,3.66,3.66,0,0,0-1-.3,1.15,1.15,0,0,0-1.13.54h-.31a3.68,3.68,0,0,1,.59-1.09,1.25,1.25,0,0,1,1.07-.4,3.24,3.24,0,0,1,1,.31,3.38,3.38,0,0,0,.95.3,1.22,1.22,0,0,0,1.19-.55Z"/><path class="cls-8" d="M240.59,404.78h-.79V403.1a4.38,4.38,0,0,1-2,1.54,4.67,4.67,0,0,1-1.67.31,4.38,4.38,0,0,1-3.3-1.3,5.23,5.23,0,0,1,0-6.73,4.65,4.65,0,0,1,7.06.69v-1.84h.79ZM239.8,402v-1.22a5,5,0,0,0-.89-3.08,3.3,3.3,0,0,0-2.81-1.34,3.48,3.48,0,0,0-2.74,1.12,4.58,4.58,0,0,0,0,5.66,3.54,3.54,0,0,0,2.76,1.11,3.74,3.74,0,0,0,1.66-.38A4.69,4.69,0,0,0,239.8,402Z"/><path class="cls-8" d="M250.49,391.49v13.29h-.78V403.1a4.28,4.28,0,0,1-2,1.54A4.71,4.71,0,0,1,246,405a4.38,4.38,0,0,1-3.3-1.3,5.23,5.23,0,0,1,0-6.73,4.65,4.65,0,0,1,7.06.69v-6.12ZM249.71,402v-1.22a5,5,0,0,0-.89-3.08,3.3,3.3,0,0,0-2.81-1.34,3.52,3.52,0,0,0-2.75,1.12,4.59,4.59,0,0,0,0,5.66,3.54,3.54,0,0,0,2.76,1.11,3.78,3.78,0,0,0,1.66-.38A4.69,4.69,0,0,0,249.71,402Z"/><path class="cls-8" d="M260.45,400.29a4.66,4.66,0,0,1-1.25,3.34,4.75,4.75,0,0,1-6.57,0,5.07,5.07,0,0,1,0-6.69,4.37,4.37,0,0,1,3.29-1.33,4.33,4.33,0,0,1,3.29,1.34A4.62,4.62,0,0,1,260.45,400.29Zm-.83,0a4.08,4.08,0,0,0-1-2.82,3.49,3.49,0,0,0-2.72-1.13,3.54,3.54,0,0,0-2.74,1.13,4.55,4.55,0,0,0,0,5.64,3.86,3.86,0,0,0,5.45,0A4.07,4.07,0,0,0,259.62,400.27Z"/><path class="cls-8" d="M266.22,396.64h-.06l-1.05-.13a2.65,2.65,0,0,0-2.19,1.14,5,5,0,0,0-.84,3.12v4h-.77v-9h.77v1.76a3.45,3.45,0,0,1,3.14-1.79l1,.13Z"/><path class="cls-8" d="M276.12,404.78h-.78V403.1a4.38,4.38,0,0,1-2,1.54,4.71,4.71,0,0,1-1.67.31,4.38,4.38,0,0,1-3.3-1.3,5.23,5.23,0,0,1-.05-6.73,4.65,4.65,0,0,1,7.06.69v-1.84h.78Zm-.78-2.82v-1.22a5,5,0,0,0-.89-3.08,3.31,3.31,0,0,0-2.82-1.34,3.51,3.51,0,0,0-2.74,1.12,4.61,4.61,0,0,0,0,5.66,3.54,3.54,0,0,0,2.76,1.11,3.79,3.79,0,0,0,1.67-.38A4.69,4.69,0,0,0,275.34,402Z"/><path class="cls-8" d="M292.81,404.42a4.74,4.74,0,0,1-1.14,3.33,4.23,4.23,0,0,1-3.26,1.28,7.11,7.11,0,0,1-1.89-.22c-.31-.09-.9-.31-1.76-.67l.27-.78a6.76,6.76,0,0,0,3.42.89,3.39,3.39,0,0,0,2.67-1.07,4,4,0,0,0,.91-2.76v-1.26a5.32,5.32,0,0,1-1,.93,4.57,4.57,0,0,1-.93.55,5.13,5.13,0,0,1-1.76.31,4.38,4.38,0,0,1-3.3-1.3,5.23,5.23,0,0,1,0-6.73,4.65,4.65,0,0,1,7.06.69v-1.83h.78Zm-.78-2.31v-1.37a5,5,0,0,0-.89-3.08,3.31,3.31,0,0,0-2.82-1.34,3.51,3.51,0,0,0-2.74,1.12,4.61,4.61,0,0,0,0,5.66,3.54,3.54,0,0,0,2.76,1.11,4,4,0,0,0,1.76-.38A4.82,4.82,0,0,0,292,402.11Z"/><path class="cls-8" d="M298.58,396.64h-.05l-1-.13a2.63,2.63,0,0,0-2.19,1.14,4.93,4.93,0,0,0-.85,3.12v4h-.76v-9h.76v1.76a3.46,3.46,0,0,1,3.15-1.79l1,.13Z"/><path class="cls-8" d="M308.32,404.78h-.78V403.1a4.36,4.36,0,0,1-2.05,1.54,4.62,4.62,0,0,1-1.66.31,4.42,4.42,0,0,1-3.31-1.3,5.25,5.25,0,0,1,0-6.73,4.65,4.65,0,0,1,7.06.69v-1.84h.78Zm-.78-2.82v-1.22a5,5,0,0,0-.89-3.08,3.32,3.32,0,0,0-2.82-1.34,3.51,3.51,0,0,0-2.74,1.12,4.61,4.61,0,0,0,0,5.66,3.54,3.54,0,0,0,2.76,1.11,3.79,3.79,0,0,0,1.67-.38A4.69,4.69,0,0,0,307.54,402Zm-2.24-10.5-2,3.26h-1.12l2-3.26Z"/><path class="cls-8" d="M313.58,392.37l-1-.19a2.84,2.84,0,0,0-.58-.05,1.86,1.86,0,0,0-1.61.78,3,3,0,0,0-.48,1.77v1.1h2.89v.74h-2.89v8.26h-.76V394.6a3.56,3.56,0,0,1,.69-2.26,2.55,2.55,0,0,1,2.11-1,3.29,3.29,0,0,1,.76.09l.84.18Z"/><path class="cls-8" d="M315.06,393.25a.51.51,0,0,1-.58.57c-.37,0-.55-.19-.55-.57a.49.49,0,0,1,.55-.55A.51.51,0,0,1,315.06,393.25Zm-.18,11.53h-.78v-9h.78Z"/><path class="cls-8" d="M323.67,397l-.57.5a3.46,3.46,0,0,0-2.63-1.14,3.56,3.56,0,0,0-2.74,1.13,4.55,4.55,0,0,0,0,5.64,3.52,3.52,0,0,0,2.74,1.12,3.44,3.44,0,0,0,2.63-1.15l.55.52a4.55,4.55,0,0,1-6.46.05,5,5,0,0,1,0-6.69,4.59,4.59,0,0,1,6.48,0Z"/><path class="cls-8" d="M333.58,404.78h-.78V403.1a4.36,4.36,0,0,1-2.05,1.54,4.66,4.66,0,0,1-1.66.31,4.39,4.39,0,0,1-3.31-1.3,5.25,5.25,0,0,1,0-6.73,4.65,4.65,0,0,1,7.06.69v-1.84h.78ZM332.8,402v-1.22a5,5,0,0,0-.89-3.08,3.33,3.33,0,0,0-2.82-1.34,3.49,3.49,0,0,0-2.74,1.12,4.58,4.58,0,0,0,0,5.66,3.54,3.54,0,0,0,2.76,1.11,3.74,3.74,0,0,0,1.66-.38A4.66,4.66,0,0,0,332.8,402Z"/><rect class="cls-9" y="381.08" width="334.1" height="2.35"/><polygon class="cls-9" points="324.84 359.57 334.12 355.12 311.72 343.69 300.81 371.12 323.17 357.65 324.84 359.57"/><polygon class="cls-10" points="324.84 359.57 300.81 371.12 301 371.11 317.68 366.73 319.62 370.3 333.7 369.69 324.84 359.57"/><polygon class="cls-9" points="323.17 357.65 300.81 371.12 324.84 359.57 323.17 357.65"/><polygon class="cls-11" points="323.17 357.65 300.81 371.12 324.84 359.57 323.17 357.65"/><polygon class="cls-12" points="300.94 371.12 315.65 371.61 316.02 373.36 321.72 374.19 319.62 370.3 301 371.11 300.94 371.12"/><polygon class="cls-10" points="301 371.11 319.62 370.3 317.68 366.73 301 371.11"/><polygon class="cls-13" points="301 371.11 319.62 370.3 317.68 366.73 301 371.11"/><polygon class="cls-14" points="316.58 376.06 316.02 373.36 301.06 371.2 316.58 376.06"/><polygon class="cls-12" points="300.94 371.12 300.87 371.14 301.06 371.2 316.02 373.36 315.65 371.61 300.94 371.12"/><polygon class="cls-7" points="300.94 371.12 300.87 371.14 301.06 371.2 316.02 373.36 315.65 371.61 300.94 371.12"/></g></g></svg>