<svg xmlns="http://www.w3.org/2000/svg" viewBox="0 0 266.67 163.89"><defs><style>.cls-1{fill:#1d1d1b;}.cls-2{fill:#6d6d6c;}.cls-3{fill:#7e7e7e;}.cls-4{fill:#009de1;}</style></defs><title>Recurso 10</title><g id="Capa_2" data-name="Capa 2"><g id="Capa_1-2" data-name="Capa 1"><path class="cls-1" d="M255.93,24.17a2.17,2.17,0,0,0-.57,3L256.57,29a2.18,2.18,0,0,0,3,.58l6.13-4.16a2.17,2.17,0,0,0,.57-3l-1.22-1.8a2.17,2.17,0,0,0-3-.57Z"/><path class="cls-2" d="M257,20.61a2.18,2.18,0,0,1,3,.58l3.88,5.71a2.18,2.18,0,0,1-.58,3L177,88.52l-6.32-9.3Z"/><path class="cls-1" d="M218.33,60.45,177,88.52s-8.05,4.54-10.78.53,4.46-9.83,4.46-9.83L212,51.15Z"/><path class="cls-1" d="M164.92,88.89a.87.87,0,0,0-.23,1.21h0a.87.87,0,0,0,1.21.23l1.29-.88a.86.86,0,0,0,.23-1.2h0a.86.86,0,0,0-1.2-.24Z"/><path class="cls-3" d="M181.71,82.83a3.14,3.14,0,0,1-.87.1,1.1,1.1,0,0,1-.85-.38,1.18,1.18,0,0,1-.11-1,4.38,4.38,0,0,1,.34-.83l0,0,0,0c1.32-.94,2.66-1.84,4-2.67s2.72-1.75,4-2.72,2.61-1.91,3.94-2.83,2.67-1.81,4-2.67l0,0h0a4.6,4.6,0,0,1,.91,0,1.17,1.17,0,0,1,.83.46,1.07,1.07,0,0,1,0,.92,3.05,3.05,0,0,1-.41.78l0,0a3.26,3.26,0,0,0,.29-.79.94.94,0,0,0-.09-.73.87.87,0,0,0-.66-.27,4.43,4.43,0,0,0-.81.07l.08,0c-1.3,1-2.63,1.87-4,2.77s-2.71,1.77-4.08,2.62-2.71,1.75-4,2.72-2.62,1.9-4,2.77l.06-.06a5,5,0,0,0-.35.74.85.85,0,0,0,0,.7.92.92,0,0,0,.64.35,3.36,3.36,0,0,0,.84,0Z"/><rect class="cls-4" x="256.73" y="20.57" width="4.05" height="11.24" transform="translate(30.02 149.97) rotate(-34.2)"/><polygon class="cls-2" points="256.04 20.18 256.04 20.18 256.06 20.2 256.06 20.2 256.06 20.2 256.06 20.2 256.04 20.18 256.04 20.18 256.04 20.18"/><path class="cls-1" d="M97.44,15.18c-11.58,19-29,51.85-32.69,66a8.24,8.24,0,0,0,.65,5.79c.65,2-3.08,3.64-3.18.18-.46-12.33,22-55.49,31.77-72.49-17.66-2.81-39.8-5.89-53.07-4.49-4.86.56-15,2.9-11.68,11.12a57.33,57.33,0,0,0,8.6,14c2.33,2.9,1,2.62-.56,1a49.72,49.72,0,0,1-9.62-12.52C23,15.18,34.19,9.29,40.08,8.08c10-2.06,35.6.93,55.78,3.08A24.08,24.08,0,0,1,98.1,8.08c.47-.47.19-1.22-.28-1.12a9,9,0,0,0-2.34.65c-1.31.47-1.31-.37-.18-1,1.49-1.21,4.57-3.46,6.44-3.74a1.86,1.86,0,0,1,1.78,3c-1,1.69-2.34,3.65-3.83,5.7,8.5.94,15.88,1.68,20.08,1.68,2.15,0,2.62-1.4,2.43-2.52a11.43,11.43,0,0,0-.93-3.27c-.94-2.52,0-3,1.31-.74.74,1.3,2.71,4.67,1.58,7.28a13.09,13.09,0,0,1-2,2.71c-1.21,1-2,1.68-3.45,1.59C114.73,17.89,106.88,16.77,97.44,15.18Z"/><path class="cls-1" d="M103.05,70.21a76.4,76.4,0,0,0,1.77-8.79A115.42,115.42,0,0,1,93.43,70a82.64,82.64,0,0,1-14.3,8.13,2.81,2.81,0,0,1-.84.18c-1.12,0-2.05-1.12-1.77-2,.37-1.31,3.27-6.82,8.5-16.26.28-.46-.19-2.61.18-3.36.28-.47,1.41-1.12,3.55-2a27.28,27.28,0,0,1,4.11-1.59c.94-.1,1.41.47,1.5,1.49-1.31.56-3.55,3.09-6.54,7.29a84.53,84.53,0,0,0-5.61,9.16,3.72,3.72,0,0,0-.27,1.21,1.25,1.25,0,0,0,.74,1.22,2.68,2.68,0,0,0,1.68,0,63.17,63.17,0,0,0,12.15-7,89.92,89.92,0,0,0,8.78-6.73,3.71,3.71,0,0,1,2.34-2.15c2.05-.09,3.27,1.31,3,2.52a11.47,11.47,0,0,0-1.5,2.34q-1.82,6.74-5.88,18.78a149.46,149.46,0,0,1,27.18-2.62,42.51,42.51,0,0,1,7.1.56c2.71.56,6.08,3.65,6.08,6.82a3.81,3.81,0,0,1-.56,2.06c-.85,1.59-2.9,3.64-6.08,6.17a2.06,2.06,0,0,1-1.31.74c-.09,0-.18,0-.18-.09,0-.28.28-.75.93-1.21,3.65-3.46,5.51-6.55,5.51-9.25,0-2.15-1.49-3.46-4.57-3.74-1.78-.09-4-.19-6.92-.19-11.21,0-20.46.75-27.65,2.24Q75.16,161.35,36,163.82q-13.45.84-24.67-8.13C3.83,149.8,0,143.17,0,135.79a18.16,18.16,0,0,1,1.4-7c4.86-11.21,19.81-21.67,44.85-31.57A311.07,311.07,0,0,1,99.87,81.6,110.59,110.59,0,0,0,103.05,70.21ZM2.52,137.29c0,6.63,3.36,12.42,9.91,17.47a34.82,34.82,0,0,0,23.35,7.38c15-.56,29.43-11.87,43-33.73A206.79,206.79,0,0,0,99.5,83.19Q66,90.06,40.36,101.78C20,111.13,7.85,120.93,3.74,131.31A16.59,16.59,0,0,0,2.52,137.29Z"/><path class="cls-1" d="M139,58.25a19,19,0,0,0,8.31,1.49c6.54,0,12-1.31,16.26-3.55C168.54,53.67,171,49.56,171,44c0-6.91-3.27-13.64-9.81-19.9A90.5,90.5,0,0,0,137.52,8C128,3.68,119,1.54,110.05,1.54c-9.81,0-15.32,3.64-16.53,10.65a22.57,22.57,0,0,0-.28,3.64c0,6.54,1.4,12,4.2,16.16a3.17,3.17,0,0,1,.47,1.13c-.09.09-.09.18-.19.18s-.56-.18-.93-.75c-1.87-1.49-3.27-4.29-4.39-7.84A32.37,32.37,0,0,1,91,15.27a14.84,14.84,0,0,1,.28-3.08c.46-3.37,2.7-6.36,6.54-8.69C102.11.88,107.35-.24,113.32,0A75.34,75.34,0,0,1,142.94,8a87.72,87.72,0,0,1,20,13.55c7.85,7,12,14.2,12,21.77,0,6.73-3.55,11.58-10.93,14.57A48.62,48.62,0,0,1,146,61c-5.6,0-10.93-1-10.93-2.53,0-.46.66-1.12,2-1.77A2.49,2.49,0,0,0,139,58.25ZM98.47,81.51a3.09,3.09,0,0,1-.56-1.4c0-.38.09-.56.47-.56s.65.28,1.21.84a10,10,0,0,0,4.3,3.08c1.49.56,3.36.37,5.88-.28,4.3-1.59,10.75-9.71,19.25-24.48,7.75-13.45,13.27-25.13,16.54-34.94.18-.18.18-.37.28-.37s.37.56.46,1.68a6.1,6.1,0,0,1-.09,2.43A237.1,237.1,0,0,1,134,56c-7.75,15.14-15,24.39-21.86,28.22a13.42,13.42,0,0,1-6.45,1.59,8.36,8.36,0,0,1-2.8-.47A10.89,10.89,0,0,1,98.47,81.51Z"/><path class="cls-1" d="M134.32,96.88c.53-.57.86-.91,1.3-1.46s.88-.79,1.11-1l.64-.54-.49-.7-1.1,1c-.23.22-.48.33-1.2,1-.48.61-.56.41-1.39,1.45a6.38,6.38,0,0,0-1.26,2,2.47,2.47,0,0,0-.2,1,1.46,1.46,0,0,0,.49,1.1,2.09,2.09,0,0,0,1,.44,4.28,4.28,0,0,0,.94.09,16.57,16.57,0,0,0,3.66-.52,70.75,70.75,0,0,0,7.5-2.33c5-1.81,9.92-3.88,13.58-5.46S165,90.24,165,90.24s-2.46,1-6.17,2.48-8.67,3.38-13.71,5a72.67,72.67,0,0,1-7.48,2.07,15.34,15.34,0,0,1-3.45.39,2.11,2.11,0,0,1-1.23-.32.33.33,0,0,1-.11-.3,1.31,1.31,0,0,1,.14-.53c.35-.78.28-1.08.8-1.66"/></g></g></svg>