<svg xmlns="http://www.w3.org/2000/svg" viewBox="0 0 109.89 95.01"><defs><style>.cls-1,.cls-2{fill:#fff;}.cls-2{fill-rule:evenodd;}</style></defs><title>Recurso 3</title><g id="Capa_2" data-name="Capa 2"><g id="Capa_1-2" data-name="Capa 1"><path class="cls-1" d="M104.86,0H5A5,5,0,0,0,0,5V76.29a5,5,0,0,0,5,5h99.83a5,5,0,0,0,5-5V5a5,5,0,0,0-5-5Zm-2.52,73.77H7.54V7.54h94.8Z"/><path class="cls-1" d="M0,89.32a2.77,2.77,0,0,0,2.78,2.77H29.52V86.54H2.78A2.77,2.77,0,0,0,0,89.32Z"/><path class="cls-1" d="M107.11,86.54H40.27v5.55h66.84a2.78,2.78,0,1,0,0-5.55Z"/><path class="cls-1" d="M34.9,83.63A3.34,3.34,0,0,0,31.56,87v4.69a3.34,3.34,0,1,0,6.68,0V87a3.34,3.34,0,0,0-3.34-3.34Z"/><path class="cls-2" d="M67.93,24.79H42a8.66,8.66,0,0,0-8.65,8.65V47.87A8.66,8.66,0,0,0,42,56.53h26a8.66,8.66,0,0,0,8.66-8.66V33.44a8.66,8.66,0,0,0-8.66-8.65Zm6.73,23.08a6.74,6.74,0,0,1-6.73,6.74H42a6.74,6.74,0,0,1-6.73-6.74V33.44A6.74,6.74,0,0,1,42,26.71h26a6.74,6.74,0,0,1,6.73,6.73Zm-26,.93,14.1-8.14-14.1-8.14Zm1.92-12.95,8.33,4.81-8.33,4.81Z"/></g></g></svg>